<svg width="18" height="17" viewBox="0 0 18 17" fill="none" xmlns="http://www.w3.org/2000/svg">
<path fill-rule="evenodd" clip-rule="evenodd" d="M7.4353 0.448241C7.50541 0.463126 7.53242 0.514026 7.5832 0.546798C7.6443 0.586293 7.7371 0.641634 7.75919 0.715823C7.78428 0.799975 7.57852 1.24559 7.54094 1.35651C7.52125 1.41437 7.45007 1.49456 7.47048 1.58183C7.50373 1.72301 7.92521 1.96514 7.85774 2.15913C7.85306 2.16382 7.84838 2.1685 7.8437 2.17318C7.67635 2.27546 7.53314 2.0086 7.47756 1.93381C7.41417 1.85638 7.35079 1.77895 7.28741 1.70152C7.15307 1.37451 7.27588 0.650878 7.4353 0.448241Z" fill="#683131"/>
<path fill-rule="evenodd" clip-rule="evenodd" d="M15.9829 5.59504C15.4769 5.90211 14.678 5.20309 14.8564 4.64451C14.9392 4.38509 15.0426 4.39074 15.2648 4.27837C15.7149 4.27297 16.023 4.52687 16.1589 4.83467C16.2877 5.12638 16.1984 5.46431 15.9829 5.59504ZM12.9835 3.10961C12.6126 3.61272 11.4938 3.40108 11.1388 3.04622C10.9881 2.89569 10.8528 2.62066 11.0051 2.38441C11.0865 2.25812 11.2862 2.16437 11.4486 2.12391C11.4956 2.11923 11.5425 2.11455 11.5894 2.10987C12.1736 2.10554 12.6712 2.21731 12.9131 2.55343C13.0214 2.70397 13.1379 2.90025 12.9835 3.10961ZM17.9051 5.60908C17.6896 5.07332 17.4155 4.62591 17.0883 4.20803C15.862 2.64167 13.9282 1.52368 11.0965 1.56066C10.991 1.56534 10.8854 1.57002 10.7797 1.5747C10.5559 1.61095 10.3699 1.60927 10.132 1.65225C9.64542 1.73988 9.16536 1.89162 8.75901 2.05356C8.58134 2.12439 8.32576 2.14552 8.20992 2.27889C8.22216 2.36844 8.2793 2.44323 8.25913 2.56748C8.17378 3.09328 7.81424 3.40684 7.50585 3.71512C7.44654 3.77442 7.05411 4.10515 7.11858 4.20803C7.23586 4.27837 7.35327 4.34884 7.47055 4.41919C7.83885 4.675 8.2158 4.89301 8.6464 5.09517C10.0219 5.74101 11.6427 6.20487 13.2721 6.58782C13.4341 6.5925 13.5961 6.59718 13.758 6.60186C14.0558 6.64988 14.4361 6.6434 14.7507 6.70042C14.9267 6.7075 15.1028 6.71458 15.2788 6.72155C15.8519 6.81314 16.5757 6.68709 17.0531 6.60186C17.4017 6.53968 17.7868 6.48698 17.9543 6.25685C18.0587 6.11339 17.9587 5.74257 17.9051 5.60908Z" fill="#683131"/>
<path fill-rule="evenodd" clip-rule="evenodd" d="M7.65372 4.7783C7.82143 4.80627 8.0752 4.99367 8.20989 5.07398C8.47039 5.20783 8.73101 5.34156 8.99151 5.47529C9.44877 5.7071 9.93471 5.87084 10.4419 6.05271C10.6682 6.13386 10.9396 6.25811 11.1741 6.32029C11.4897 6.40384 11.7783 6.52365 12.0823 6.59484C12.2326 6.63001 12.5614 6.67407 12.6667 6.74261C12.7841 6.90696 12.9014 7.0713 13.0188 7.23552C13.2784 7.62807 13.4022 8.13082 13.5046 8.67883C13.5116 8.89011 13.5187 9.10139 13.5258 9.31255C13.5158 9.3739 13.4982 9.46621 13.5187 9.5308C13.5516 9.57305 13.5845 9.61531 13.6172 9.65757C13.6924 9.75144 13.7674 9.84532 13.8426 9.93919C13.9302 10.0481 14.1183 10.1387 14.1524 10.2912V10.5588C14.1524 10.8927 14.138 11.1477 14.075 11.4178C14.0474 11.5354 13.9877 11.701 14.0186 11.8332C14.3722 11.9626 15.0329 12.1461 15.0676 12.5584C15.0463 12.5734 15.0375 12.587 15.0113 12.5795C14.938 12.5584 14.9532 12.4971 14.8634 12.488C14.8541 12.495 14.8447 12.5021 14.8353 12.509C14.822 12.5623 14.8046 12.6209 14.7579 12.6429C14.5704 12.675 14.2655 12.0862 13.9623 12.2627C13.953 12.2963 13.941 12.3241 13.913 12.3401C13.9013 12.3424 13.8895 12.3448 13.8777 12.3471C13.7979 12.234 13.7813 12.0687 13.7088 11.9458C13.6711 11.8819 13.5895 11.8287 13.575 11.7486C13.5569 11.6485 13.6216 11.4946 13.6455 11.4178C13.6806 11.2793 13.7158 11.1409 13.7511 11.0023C13.798 10.8373 13.8821 10.672 13.8848 10.4673C13.7369 10.3076 13.589 10.1481 13.4413 9.98841C13.4295 9.99081 13.4177 9.99321 13.4061 9.9955C13.3509 10.5032 13.051 10.8939 12.8075 11.2276C12.2918 11.9346 11.7492 12.4911 10.7447 12.7132C10.6508 12.7203 10.5569 12.7274 10.463 12.7343C10.0626 12.8058 9.55033 12.758 9.20267 12.664C9.12765 12.6569 9.0525 12.6499 8.97735 12.6429C8.67471 12.5513 8.37184 12.4598 8.06908 12.3682C7.83391 12.2814 7.59442 12.1386 7.37209 12.0303C7.11027 11.9028 6.9236 11.7447 6.73141 11.5515C6.67775 11.4976 6.55854 11.4216 6.54834 11.3333C7.26513 10.4952 7.73127 9.47078 8.04795 8.2283C8.13078 7.90358 8.16764 7.52987 8.16776 7.12988V6.82713C8.09645 6.42209 8.0704 6.00229 7.94243 5.6514C7.85816 5.42031 7.77425 5.17433 7.68193 4.93316C7.66357 4.88526 7.62623 4.88178 7.61855 4.81348C7.63031 4.80171 7.64196 4.79007 7.65372 4.7783Z" fill="#683131"/>
<path fill-rule="evenodd" clip-rule="evenodd" d="M3.42922 2.90549C3.45755 2.83755 3.55707 2.78797 3.61937 2.75063C3.94662 2.73899 4.128 3.10621 3.82345 3.22937C3.62309 3.31041 3.3393 3.12085 3.42922 2.90549ZM3.901 5.41205C3.97375 5.39788 4.04649 5.38384 4.11924 5.36979C4.50147 5.36631 4.98657 5.55634 5.07673 5.81336C5.33062 6.53724 4.56029 7.26832 3.76715 7.08777C3.2195 6.96292 2.89045 6.40399 3.24615 5.85562C3.38384 5.64338 3.62885 5.48816 3.901 5.41205ZM4.6825 10.3054C4.25825 10.4182 4.00184 10.0192 4.10508 9.66467C4.15345 9.49877 4.30687 9.41582 4.45717 9.34775C4.7975 9.34067 4.98057 9.43058 5.06976 9.66467C5.19233 9.98652 4.87349 10.2546 4.6825 10.3054ZM2.86596 9.44643C2.75252 9.87211 2.45637 10.1379 2.00691 10.2279C1.90548 10.2482 1.80308 10.2098 1.73237 10.1926C1.22085 10.0685 0.900691 9.57176 1.0846 8.93948C1.15903 8.68366 1.38328 8.43805 1.61977 8.34093C1.71592 8.3198 1.8122 8.29867 1.90836 8.27766C2.46501 8.28199 2.7015 8.59254 2.83775 9.02387C2.86668 9.11546 2.90054 9.31642 2.86596 9.44643ZM5.44287 1.94788C5.46399 1.90107 5.48512 1.85401 5.50625 1.80707C5.52498 1.79771 5.54383 1.78834 5.56255 1.77898C5.70793 1.7779 5.77755 1.87118 5.82305 1.96901C5.82341 2.08606 5.75811 2.16073 5.67516 2.19434C5.56315 2.19374 5.42354 2.07285 5.44287 1.94788ZM4.29523 4.60942C4.6993 4.60822 5.07205 4.59514 5.42174 4.52491C5.94622 4.41951 6.48799 4.25613 6.85809 3.98278C7.05256 3.83909 7.21679 3.65914 7.38617 3.48987C7.53827 3.33778 7.71101 3.18772 7.82266 2.99697C7.86827 2.91918 7.89576 2.84079 7.9283 2.75063C8.11089 2.24284 7.48845 2.26745 7.10454 2.2085C6.96601 2.2061 6.8276 2.20382 6.68906 2.20142C6.61403 2.20382 6.53889 2.2061 6.46374 2.2085C6.4168 2.22255 6.36986 2.2366 6.32292 2.25076C6.26926 2.23599 6.15306 1.90779 6.11176 1.84236C5.93758 1.56626 5.71453 1.48739 5.25271 1.49027C5.12835 1.50203 5.00398 1.5138 4.87961 1.52544C4.62271 1.5809 4.09115 1.72544 4.02068 1.95497C3.80868 1.90731 3.68143 2.07345 3.54182 2.18029C3.34771 2.32891 2.94471 2.70453 3.02082 3.09552C3.03655 3.17655 3.0674 3.24678 3.07016 3.34906C3.06776 3.35374 3.22034 3.67294 3.30953 3.79971C3.33918 3.83621 3.39164 3.84809 3.41517 3.89119C3.43222 3.94401 3.32466 4.15589 3.30953 4.24328C3.31421 4.29718 3.3189 4.3512 3.32358 4.40522C3.277 4.43019 3.24663 4.40498 3.18276 4.41927C3.07244 4.46153 2.96212 4.50378 2.85192 4.54604C2.44316 4.72923 1.99743 5.06848 1.66898 5.34866C1.63405 5.34122 1.64534 5.35119 1.63381 5.32045C1.68531 5.22358 1.78759 5.16932 1.82396 5.05995C1.87222 4.91482 1.81484 4.17101 1.7535 4.1236C1.65866 4.05013 1.28184 4.05637 1.24654 4.00391C1.23718 3.92876 1.22782 3.85361 1.21845 3.77858C1.16983 3.67871 0.789769 3.42817 0.648115 3.43357C0.444277 3.63381 0.812818 3.81508 0.880403 3.93344C0.873081 3.99323 0.841388 4.00595 0.831185 4.05313C0.805615 4.17173 0.917738 4.31195 0.993127 4.33476C1.19108 4.39454 1.46251 4.25517 1.53525 4.43331C1.62985 4.66512 1.42805 5.05515 1.39444 5.24302C1.37307 5.36259 1.43814 5.44422 1.45074 5.53173C1.31233 5.7124 1.1738 5.89319 1.03538 6.07386C0.772602 6.46329 0.515344 6.84119 0.331314 7.31298C-0.321496 8.98653 0.0632512 11.1266 0.852313 12.3401C1.10777 12.733 1.57295 13.6702 2.28866 13.5441C3.20893 13.3819 3.95478 12.929 4.59798 12.4739C5.67384 11.7128 6.49819 10.9259 7.18893 9.77728C7.39901 9.42806 7.52974 9.00718 7.67476 8.60143C7.96995 7.77635 8.01713 6.28814 7.68184 5.46835C7.57584 5.20917 7.43023 4.99249 7.28761 4.77833C7.21666 4.67197 7.16865 4.54472 7.06925 4.46849C6.9971 4.41327 6.84908 4.34796 6.74536 4.33476C6.68162 4.32659 6.65053 4.37893 6.60455 4.39106C6.41836 4.44052 6.29363 4.42995 6.11176 4.48265C5.41994 4.68277 4.52632 4.76944 3.6968 4.65864C3.69212 4.65396 3.68732 4.64928 3.68263 4.6446V4.62347C3.82117 4.55276 4.11708 4.6099 4.29523 4.60942Z" fill="#683131"/>
<path fill-rule="evenodd" clip-rule="evenodd" d="M6.61167 11.8332C6.62812 11.8356 6.64456 11.8379 6.66101 11.8403C6.69378 11.8754 6.72667 11.9106 6.75957 11.9458C6.93591 12.0826 7.18045 12.1724 7.2664 12.3964C7.2712 12.4598 7.27588 12.5232 7.28057 12.5866C7.32042 12.6921 7.3604 12.7977 7.40025 12.9034C7.45115 13.0603 7.46003 13.234 7.54106 13.3681C7.67011 13.4361 7.79928 13.5042 7.92833 13.5723C8.23361 13.7498 8.55209 13.9149 8.84356 14.1002C8.91367 14.1449 9.02075 14.1749 9.06889 14.2411C9.14092 14.34 9.14752 14.8619 9.11823 15.0367C9.1079 15.0983 9.08281 15.179 9.0971 15.262C9.13563 15.4873 9.23431 15.5158 9.3013 15.6634C9.19422 15.8054 9.07657 15.6475 8.9492 15.6845C8.94212 15.6892 8.93516 15.6938 8.92807 15.6985C8.93216 15.8282 9.07165 15.987 9.01259 16.0929C8.92711 16.1057 8.90947 16.0583 8.85773 16.0224C8.58066 15.8302 8.49579 15.2849 8.59723 14.8114C8.61992 14.7049 8.71499 14.4847 8.67466 14.4101C8.56025 14.3767 8.47814 14.2974 8.38595 14.2411C8.12233 14.0803 7.87815 13.9207 7.63254 13.7553C7.47768 13.651 7.28237 13.5474 7.17492 13.3962C7.05944 13.2334 6.949 13.0143 6.87217 12.826C6.86281 12.7813 6.85344 12.7368 6.84408 12.6921C6.74576 12.4831 6.70675 12.2634 6.65393 11.9951C6.64216 11.9351 6.59738 11.8976 6.61167 11.8332Z" fill="#683131"/>
<path fill-rule="evenodd" clip-rule="evenodd" d="M4.93787 1.52343C4.93787 1.52343 5.11625 0.895708 5.27483 0.578427C5.43342 0.261266 5.25839 0.178674 5.31457 0.0366598C5.37063 -0.105475 5.78083 0.178434 5.44998 0.667621C5.21541 1.01455 4.95767 1.6622 4.95767 1.6622L4.93787 1.52343Z" fill="#683131"/>
<path fill-rule="evenodd" clip-rule="evenodd" d="M3.44905 2.22558C3.44905 2.22558 2.90128 1.87097 2.57296 1.73676C2.24463 1.60266 2.32194 1.42512 2.18605 1.35525C2.05028 1.28538 1.92879 1.76917 2.49997 1.91923C2.905 2.02571 3.52552 2.34299 3.52552 2.34299L3.44905 2.22558Z" fill="#683131"/>
</svg>
