<svg width="33" height="20" viewBox="0 0 33 20" fill="none" xmlns="http://www.w3.org/2000/svg">
<path fill-rule="evenodd" clip-rule="evenodd" d="M25.195 1.6662C25.5388 1.6667 25.6575 1.81312 25.8261 1.98173C26.5072 2.6629 26.4181 3.5473 26.2006 4.66353C26.1475 4.93619 26.2067 5.28468 26.0922 5.51145C26.0549 5.58525 25.9515 5.63081 25.8851 5.67905C25.6354 5.86061 25.3979 6.10604 25.1753 6.31987C25.1523 6.31012 25.1293 6.30021 25.1062 6.29029C25.1688 5.68897 25.2311 5.08732 25.2937 4.48601C25.2957 4.27117 25.3544 3.89948 25.2639 3.73676C25.1921 3.72163 25.1131 3.7102 25.0471 3.74651C24.7317 4.05549 24.416 4.36447 24.1006 4.67328C23.7424 5.01184 23.3842 5.35041 23.0259 5.68897C22.6761 6.12218 22.3088 6.56497 21.9611 7.0002C21.8591 7.14158 21.7572 7.28279 21.6554 7.42416C21.5338 7.55226 21.4123 7.68052 21.2906 7.80862C21.227 7.8878 21.1709 8.01186 21.0737 8.05523C20.969 8.08196 20.3725 7.89957 20.2061 7.86779C19.6309 7.75836 19.0163 7.61883 18.4412 7.49325C18.3427 7.4867 18.244 7.47997 18.1455 7.47342C18.0863 7.45039 18.0271 7.42736 17.968 7.40449C17.8452 7.37608 17.7733 7.45509 17.682 7.41424C17.6854 7.38466 17.6886 7.35507 17.6919 7.32548C18.27 7.06156 18.7648 6.65424 19.299 6.33954C20.4425 5.66611 21.5027 4.92762 22.5231 4.13113C22.74 3.92403 22.9568 3.71692 23.1739 3.50998C23.5084 3.24421 23.8957 2.95725 24.1598 2.62255C24.4168 2.29659 24.6058 1.93365 24.9781 1.72537C25.0504 1.7057 25.1227 1.68586 25.195 1.6662Z" fill="#466831"/>
<path fill-rule="evenodd" clip-rule="evenodd" d="M8.73948 7.80869C8.70703 7.96638 8.62046 8.13667 8.56196 8.27216C8.50245 8.41034 8.33418 8.66889 8.10841 8.61711C7.55047 8.48919 7.51516 7.16216 7.81271 6.69449C7.90635 6.54756 8.01444 6.48872 8.16758 6.39879C8.63122 6.39374 8.85446 7.24907 8.73948 7.80869ZM32.7869 18.9894C32.474 18.5972 31.9489 18.3817 31.3474 18.2795H30.539C30.4863 18.2926 30.4337 18.3057 30.3811 18.319C30.1853 18.2693 30.1414 17.933 29.9474 17.8752C29.6976 17.8818 29.4478 17.8883 29.198 17.8951C29.0415 17.8544 28.9272 17.6086 28.7938 17.5203C28.5326 17.3474 28.1164 17.3284 27.9261 17.0865C27.9525 16.2979 27.9787 15.509 28.0049 14.7202C28.0051 13.5023 28.0633 12.3124 28.2712 11.2693C28.3107 10.9113 28.35 10.5529 28.3896 10.1946C28.3961 10.0469 28.4027 9.89892 28.4092 9.75099C28.5329 9.11807 28.6377 8.37924 28.7643 7.75944C28.7708 7.65101 28.7774 7.54241 28.7839 7.43398C28.9398 6.71852 29.0906 5.72502 28.7643 5.06772C28.6982 4.93475 28.577 4.83322 28.4881 4.7226C28.3917 4.60258 28.2692 4.47431 28.1233 4.40724C27.7845 4.25107 27.4658 4.48574 27.2753 4.63384C27.0223 4.83086 26.86 5.12807 26.6345 5.35367C26.4096 5.57877 26.1487 5.7578 25.895 5.95516C25.6815 6.14898 25.4679 6.34298 25.2542 6.5368C24.8662 6.84645 24.4443 7.11273 24.0218 7.38473C23.7228 7.58511 23.4235 7.78566 23.1245 7.98621C22.9503 8.07817 22.7762 8.17029 22.602 8.26224C21.3641 9.04831 20.0325 9.72779 18.7667 10.4905C18.2605 10.8092 17.7543 11.1281 17.2483 11.4468C17.0903 11.5576 16.8235 11.8468 16.6369 11.8905C16.6946 11.7061 17.4928 11.0678 17.682 10.9244C18.3817 10.3938 19.1456 9.9006 19.9103 9.43545C20.1206 9.32703 20.3311 9.2186 20.5414 9.11017C20.8875 8.89987 21.1805 8.67847 21.5668 8.50869C21.57 8.48902 21.5734 8.46935 21.5766 8.44951V8.43976C21.5102 8.40345 21.4187 8.4327 21.3202 8.41018C21.1591 8.35756 20.9981 8.30494 20.8371 8.25232C20.5496 8.176 20.3408 8.19366 20.0582 8.12423C19.3523 7.95074 18.5357 7.81575 17.8201 7.68043C17.39 7.59923 16.9854 7.59335 16.5877 7.51283C16.2459 7.48996 15.904 7.46693 15.5622 7.4439C15.3887 7.39868 15.1825 7.09004 14.951 6.99035C14.6128 6.84477 14.2493 6.81351 13.8664 6.7044C13.4722 6.59211 13.0109 6.42047 12.6143 6.3297C12.0009 6.1895 11.4443 5.93078 10.7409 5.92557C10.2524 5.92187 9.84444 5.84168 9.70575 6.21152C9.68272 6.21807 9.65969 6.22463 9.63666 6.23119C9.30263 5.96743 9.1041 5.6018 8.70989 5.38326C7.97897 4.97812 6.87754 5.40545 6.58033 5.93532C6.54418 5.93868 6.50787 5.94188 6.47173 5.94524C6.25571 5.58331 5.90992 5.33014 5.65339 5.00855C5.40526 4.69739 5.13814 4.37563 4.91406 4.0522C3.94022 2.64767 2.93848 1.29778 1.86731 8.28098e-07H1.79838C1.78527 0.00975098 1.77199 0.0196696 1.75888 0.0295879C1.67651 0.242074 1.81486 0.426486 1.90681 0.581647C2.14922 0.990481 2.41869 1.37091 2.66598 1.76478C3.09213 2.44342 3.55492 3.13787 4.03655 3.77617C4.44404 4.27242 4.85152 4.76866 5.25901 5.26491C5.52529 5.54094 5.79157 5.81714 6.05768 6.09317C6.13653 6.16209 6.21554 6.23119 6.29438 6.30011V6.3692C6.27454 6.41005 6.25555 6.41896 6.21537 6.43829C6.05499 6.42787 5.91244 6.24211 5.80132 6.16209C5.48444 5.93381 5.15966 5.71695 4.85489 5.48177C3.79447 4.66377 2.75726 3.84358 1.64053 3.07617C1.24952 2.8494 0.858335 2.62262 0.46732 2.39585C0.355362 2.32928 0.121694 2.18622 0.00402004 2.33667C-0.0338038 2.5574 0.204571 2.66347 0.329305 2.76064C0.668207 3.02423 1.01064 3.29505 1.3645 3.54939C2.14098 4.10717 2.90822 4.69285 3.68151 5.25499C4.4637 5.8237 5.28574 6.34264 6.05768 6.91151C6.04928 7.38423 5.9548 7.86518 6.05768 8.33117C6.3359 9.5923 7.40926 11.0866 8.44378 11.5849C8.79126 11.5554 9.43292 10.6567 9.53815 10.3326C9.57379 10.3422 9.55816 10.3321 9.57749 10.3525C9.62809 10.4145 9.59665 10.5549 9.62691 10.6384C9.68928 10.7633 9.75181 10.8882 9.81418 11.013C10.008 11.3063 10.2963 11.4961 10.5044 11.7721C10.4992 11.8274 10.4913 11.8476 10.455 11.8708C10.3558 11.948 10.0902 11.9138 9.9522 11.9399C9.52504 12.0122 9.09771 12.0845 8.67056 12.1568C8.46412 12.2405 8.20104 12.6406 8.05915 12.8172C7.5271 13.4806 7.03404 14.1732 6.51123 14.8483C6.43155 14.9513 5.91849 15.5533 5.94926 15.6668C5.98859 15.7095 6.0281 15.7522 6.0676 15.7949C6.02944 15.9603 5.36727 16.0144 5.17025 16.0709C4.7083 16.2034 4.28333 16.5146 4.03655 16.8696C3.95855 16.9817 3.79498 17.1308 3.84911 17.3331C3.87332 17.3919 3.91938 17.4363 3.96745 17.4711C4.14296 17.4521 4.2729 17.2682 4.35191 17.1456H4.40134C4.44067 17.1883 4.48018 17.231 4.51968 17.2739C4.65534 17.2467 4.8374 16.8469 4.97323 16.7513C5.14168 16.6326 5.44494 16.5892 5.67323 16.5442C5.74871 16.541 5.82435 16.5376 5.9 16.5344C6.09416 16.4662 6.19015 16.1859 6.40281 16.1498C6.45206 16.2024 6.50132 16.255 6.55074 16.3076C6.56385 16.3142 6.57696 16.3207 6.59008 16.3273H6.59999C6.65934 16.2248 6.64471 16.0498 6.6985 15.9526C6.78071 15.8376 6.86291 15.7226 6.94512 15.6076C7.2662 15.1035 7.57921 14.6077 7.91122 14.1187C8.04604 13.9204 8.22911 13.5046 8.43386 13.3991C8.60768 13.3095 8.79596 13.3063 8.99584 13.2511C9.38719 13.1434 9.82797 12.9901 10.2086 12.8764C10.7467 12.7159 11.1799 12.6616 11.4705 12.2652C11.7074 12.322 11.8876 12.6027 12.0523 12.7483C12.2363 12.8963 12.4203 13.0442 12.6044 13.192C12.831 13.3313 13.0833 13.4824 13.3834 13.5371C13.5772 13.5724 13.786 13.4481 13.9059 13.4878C14.0029 13.5458 14.0247 13.6958 14.0834 13.7934C14.1713 13.9399 14.3263 14.1051 14.4679 14.1977C14.8407 14.4413 15.7734 14.6082 16.4397 14.5033C16.6882 14.4642 16.9185 14.4168 17.2088 14.4146C17.3566 14.6831 17.3475 15.0954 17.4257 15.4104C17.6158 16.1752 17.7362 16.9873 17.9287 17.7275C18.0265 17.795 18.0455 17.7313 18.1356 17.6979C18.139 17.7011 18.1421 17.7044 18.1455 17.7076C18.2265 17.755 18.2526 17.875 18.3032 17.9542C18.415 18.0988 18.5268 18.2434 18.6384 18.3879C18.6878 18.4767 18.7371 18.5655 18.7863 18.6542C18.806 18.6509 18.8258 18.6477 18.8455 18.6443C18.8521 18.5819 18.8586 18.5194 18.8652 18.457C18.8751 18.4505 18.885 18.4437 18.8948 18.4372C19.0143 18.451 19.0718 18.5288 19.161 18.5752C19.3534 18.6757 19.5569 18.7368 19.723 18.8612C19.8642 18.9894 20.0056 19.1175 20.147 19.2458C20.2038 19.2068 20.2213 19.1328 20.2751 19.0879H20.285C20.4121 19.1853 20.4622 19.3465 20.6005 19.443C20.7066 19.4342 20.7854 19.3796 20.7977 19.2754C20.8374 19.1363 20.5548 18.8102 20.4822 18.7134C20.3013 18.4723 20.0219 18.2693 19.7034 18.1711C19.5159 18.1284 19.3286 18.0855 19.1412 18.0428C19.0336 17.9924 18.632 17.6068 18.5695 17.5104C18.6056 17.4612 18.6418 17.4119 18.6779 17.3627C18.6969 17.3067 18.4846 16.6319 18.4412 16.5048C18.1976 15.7887 18.0374 15.0416 17.8201 14.3159C17.7342 14.0291 17.7041 13.5547 17.4455 13.4483C17.1375 13.3216 16.0536 13.5594 15.8285 13.6455C15.7357 13.681 15.3607 13.8608 15.2665 13.823C15.2358 13.803 15.2453 13.8183 15.2369 13.7738C15.6681 13.4819 16.1762 13.2846 16.7948 13.1723C17.1399 13.1096 17.5482 13.1592 17.692 13.3399C17.868 13.5611 18.0502 14.4795 18.2144 14.5822C18.3533 14.6689 18.6764 14.5405 18.806 14.5133C19.3528 14.3981 19.8168 14.1821 20.2455 13.9314C21.8353 13.0022 23.2504 11.4322 24.357 10.0074C24.8203 9.41091 25.2135 8.70234 25.7769 8.20307C26.2274 7.80365 26.6814 7.37733 27.1077 6.95085C27.2996 6.75921 27.4139 6.46469 27.7684 6.43829C27.9679 6.62405 27.8197 6.94597 27.8177 7.26638C27.8151 7.66362 27.7664 7.9963 27.7092 8.34108C27.6796 8.64334 27.6501 8.94576 27.6205 9.24818C27.5398 9.75704 27.569 10.257 27.4825 10.7862C27.2434 12.2484 27.3014 13.8198 27.1669 15.3809C27.1202 15.9237 27.1276 16.5168 27.1276 17.1063C27.1209 17.3395 27.1143 17.573 27.1077 17.8063C27.1407 17.9191 27.3105 18.0524 27.4825 18.0231C27.5679 18.01 27.6534 17.9969 27.7388 17.9836C27.798 18.0132 27.8572 18.0428 27.9163 18.0724C28.266 18.2582 28.5293 18.6031 28.8332 18.8415C29.0468 18.9894 29.2605 19.1374 29.474 19.2851C29.4873 19.2819 29.5004 19.2786 29.5135 19.2754C29.6779 19.1989 29.5834 18.9931 29.5727 18.8316C29.5826 18.825 29.5924 18.8185 29.6023 18.8119C29.7112 18.7744 29.9005 18.8728 29.9966 18.9007C30.4048 19.019 30.7308 19.1705 31.0517 19.3739C31.1157 19.4146 31.4629 19.6101 31.515 19.5907C31.5249 19.5875 31.5346 19.5842 31.5446 19.581C31.5822 19.39 31.4434 19.2043 31.5642 19.0387C32.1013 18.9319 32.3431 19.2971 32.6389 19.4922C32.7543 19.5682 32.9205 19.539 32.994 19.443C33.0323 19.233 32.8787 19.1044 32.7869 18.9894Z" fill="#466831"/>
<path fill-rule="evenodd" clip-rule="evenodd" d="M6.83668 10.5299C6.86291 10.5399 6.8893 10.5496 6.91552 10.5595C6.96747 10.6883 7.1112 10.791 7.21139 10.8751C7.20803 10.9013 7.20483 10.9277 7.20147 10.9539C7.06009 11.1708 6.91888 11.3878 6.77751 11.6046C6.51644 11.9908 6.29 12.3868 6.00842 12.7483C5.93395 12.8441 5.79963 12.8725 5.71272 12.9554C5.59774 13.0769 5.48259 13.1986 5.3676 13.3202C5.24606 13.3965 5.01677 13.3851 4.89438 13.4385C4.69417 13.5258 4.48505 13.7475 4.25356 13.7737C4.24365 13.7638 4.23373 13.7541 4.22398 13.7441C4.21742 13.6569 4.22667 13.5347 4.1648 13.4977C3.94795 13.3556 3.3895 13.8257 3.17886 13.8033C3.117 13.7618 3.07195 13.7201 3.07043 13.616C3.26745 13.2418 3.85616 12.9841 4.31274 12.8765C4.62474 12.8666 4.93708 12.8567 5.24926 12.847C5.39971 12.7646 5.32289 12.5175 5.41686 12.3835C5.52209 12.2751 5.62733 12.1666 5.73239 12.0582C5.87041 11.8775 6.00859 11.6966 6.14661 11.5159C6.3559 11.2202 6.57191 10.7596 6.83668 10.5299Z" fill="#466831"/>
</svg>
