<svg width="33" height="11" viewBox="0 0 33 11" fill="none" xmlns="http://www.w3.org/2000/svg">
<path d="M-1.21891e-05 3.60001L4.22399 1.20001L4.25999 1.82401L0.971988 3.61201C1.70799 3.99601 2.80399 4.58001 4.25999 5.36401L4.22399 6.00001L-1.21891e-05 3.60001ZM6.83202 3.60001L11.056 1.20001L11.092 1.82401L7.80402 3.61201C8.54002 3.99601 9.63602 4.58001 11.092 5.36401L11.056 6.00001L6.83202 3.60001ZM19.266 6.97201L19.734 6.94801L19.77 7.06801C19.762 7.06801 19.706 7.08001 19.602 7.10401C19.362 7.16001 19.094 7.18801 18.798 7.18801C18.526 7.17201 18.278 7.12801 18.054 7.05601C17.83 6.97601 17.622 6.81601 17.43 6.57601C17.238 6.32801 17.142 6.01201 17.142 5.62801V1.41601H16.53L16.626 1.32001L17.154 1.21201L17.25 0.0600119L17.922 1.19209e-05V1.20001H19.374V1.41601H17.922V5.42401C17.922 6.03201 18.05 6.44401 18.306 6.66001C18.562 6.86801 18.882 6.97201 19.266 6.97201ZM23.0305 7.24801C22.1985 7.24801 21.5225 7.00801 21.0025 6.52801C20.4905 6.04801 20.2345 5.31601 20.2345 4.33201C20.2345 3.34001 20.5065 2.56401 21.0505 2.00401C21.6025 1.43601 22.2945 1.15201 23.1265 1.15201C23.9585 1.15201 24.6345 1.39201 25.1545 1.87201C25.6745 2.35201 25.9345 3.08801 25.9345 4.08001C25.9345 5.06401 25.6585 5.84001 25.1065 6.40801C24.5625 6.96801 23.8705 7.24801 23.0305 7.24801ZM23.1145 1.36801C22.5145 1.36801 22.0145 1.62801 21.6145 2.14801C21.2145 2.66801 21.0145 3.37601 21.0145 4.27201C21.0145 5.16001 21.2025 5.84401 21.5785 6.32401C21.9625 6.79601 22.4545 7.03201 23.0545 7.03201C23.6545 7.03201 24.1545 6.77201 24.5545 6.25201C24.9545 5.73201 25.1545 5.02801 25.1545 4.14001C25.1545 3.25201 24.9625 2.56801 24.5785 2.08801C24.2025 1.60801 23.7145 1.36801 23.1145 1.36801ZM26.7792 10.2L26.7912 10.032L27.4152 9.94801C27.4872 9.94001 27.5232 9.88401 27.5232 9.78001V1.59601C27.5072 1.53201 27.4832 1.50001 27.4512 1.50001L26.7192 1.47601L26.7312 1.30801C27.2352 1.23601 27.5792 1.20001 27.7632 1.20001C27.9472 1.20001 28.0792 1.24801 28.1592 1.34401C28.2392 1.43201 28.2872 1.53201 28.3032 1.64401C28.8072 1.27601 29.3432 1.09201 29.9112 1.09201C30.4552 1.09201 30.9672 1.26001 31.4472 1.59601C31.7032 1.78001 31.9072 2.06801 32.0592 2.46001C32.2192 2.85201 32.2992 3.32801 32.2992 3.88801C32.2992 4.95201 32.0352 5.75201 31.5072 6.28801C30.9072 6.89601 30.1312 7.20001 29.1792 7.20001C28.8992 7.20001 28.6072 7.18001 28.3032 7.14001V9.94801L29.3232 10.008C29.3152 10.12 29.3112 10.18 29.3112 10.188L26.7792 10.2ZM28.3032 1.88401V6.88801C28.5352 6.94401 28.7872 6.97201 29.0592 6.97201C29.8432 6.97201 30.4472 6.70801 30.8712 6.18001C31.3032 5.64401 31.5192 4.90001 31.5192 3.94801C31.5192 2.86001 31.3032 2.12801 30.8712 1.75201C30.5352 1.45601 30.1592 1.30801 29.7432 1.30801C29.3272 1.30801 28.8472 1.50001 28.3032 1.88401Z" fill="#2D2519"/>
</svg>
