<svg width="87" height="87" viewBox="0 0 87 87" fill="none" xmlns="http://www.w3.org/2000/svg">
<circle cx="43.5" cy="43.5" r="43.5" fill="#D3CDB5"/>
<path d="M55.9102 25C55.9424 25 55.9699 25.0174 55.9883 25.0436C56.0021 25.0697 56.0021 25.1046 55.9837 25.1264L42.6113 43.5L55.9837 61.8736C56.0021 61.8998 56.0067 61.9303 55.9883 61.9564C55.9745 61.9826 55.9424 62 55.9102 62L45.4952 62C45.4677 62 45.4401 61.9869 45.4263 61.9651L32.0172 43.5436C31.9943 43.5174 31.9943 43.4782 32.0172 43.4521L45.4217 25.0349C45.4355 25.0131 45.4631 25 45.4906 25L55.9056 25L55.9102 25Z" fill="#333333"/>
</svg>
